<svg width="102" height="72" viewBox="0 0 102 72" fill="none" xmlns="http://www.w3.org/2000/svg">
<g filter="url(#filter0_d_124_116)">
<path d="M32.5 13.25H32.929L33.1465 12.8803L37.929 4.75H64.071L68.8535 12.8803L69.071 13.25H69.5H93C95.3472 13.25 97.25 15.1528 97.25 17.5V62.5C97.25 64.8472 95.3472 66.75 93 66.75H9C6.65279 66.75 4.75 64.8472 4.75 62.5V17.5C4.75 15.1528 6.65279 13.25 9 13.25H32.5Z" stroke="#FF4848" stroke-width="1.5"/>
<path d="M28 13.5V7.5C28 6.94772 27.5523 6.5 27 6.5H15C14.4477 6.5 14 6.94772 14 7.5V13.5" stroke="#FF4848" stroke-width="1.5"/>
<circle cx="51" cy="39.5" r="22.25" stroke="#FF4848" stroke-width="1.5"/>
<circle cx="51" cy="39.5" r="22.25" stroke="#FF4848" stroke-width="1.5"/>
<circle cx="51" cy="39.5" r="16.25" stroke="#FF4848" stroke-width="1.5"/>
<circle cx="51" cy="39.5" r="16.25" stroke="#FF4848" stroke-width="1.5"/>
<path d="M49.3593 28.4653C51.0688 28.1179 52.8371 28.1917 54.5117 28.6804C56.1863 29.1691 57.7168 30.058 58.9711 31.2703C60.2254 32.4826 61.1659 33.982 61.7113 35.639C62.2567 37.2959 62.3906 39.0607 62.1016 40.7811" stroke="#FF4848" stroke-width="1.5" stroke-linecap="round" stroke-linejoin="round"/>
<path d="M49.3593 28.4653C51.0688 28.1179 52.8371 28.1917 54.5117 28.6804C56.1863 29.1691 57.7168 30.058 58.9711 31.2703C60.2254 32.4826 61.1659 33.982 61.7113 35.639C62.2567 37.2959 62.3906 39.0607 62.1016 40.7811" stroke="#FF4848" stroke-width="1.5" stroke-linecap="round" stroke-linejoin="round"/>
<mask id="path-6-inside-1_124_116" fill="white">
<rect x="78" y="19.5" width="12" height="12" rx="1"/>
</mask>
<rect x="78" y="19.5" width="12" height="12" rx="1" stroke="#FF4848" stroke-width="3" mask="url(#path-6-inside-1_124_116)"/>
</g>
<defs>
<filter id="filter0_d_124_116" x="0" y="0" width="102" height="71.5" filterUnits="userSpaceOnUse" color-interpolation-filters="sRGB">
<feFlood flood-opacity="0" result="BackgroundImageFix"/>
<feColorMatrix in="SourceAlpha" type="matrix" values="0 0 0 0 0 0 0 0 0 0 0 0 0 0 0 0 0 0 127 0" result="hardAlpha"/>
<feOffset/>
<feGaussianBlur stdDeviation="2"/>
<feComposite in2="hardAlpha" operator="out"/>
<feColorMatrix type="matrix" values="0 0 0 0 1 0 0 0 0 0 0 0 0 0 0 0 0 0 0.25 0"/>
<feBlend mode="normal" in2="BackgroundImageFix" result="effect1_dropShadow_124_116"/>
<feBlend mode="normal" in="SourceGraphic" in2="effect1_dropShadow_124_116" result="shape"/>
</filter>
</defs>
</svg>
