<svg width="30" height="30" viewBox="0 0 30 30" fill="none" xmlns="http://www.w3.org/2000/svg">
<path d="M28.35 0H1.65C1.21239 0 0.792709 0.169576 0.483274 0.471424C0.173839 0.773272 0 1.18267 0 1.60954V27.6549C0 28.0817 0.173839 28.4911 0.483274 28.793C0.792709 29.0948 1.21239 29.2644 1.65 29.2644H16.02V17.9244H12.12V13.5348H16.02V10.2425C15.9392 9.46961 16.0328 8.68879 16.2941 7.95485C16.5554 7.22092 16.9781 6.55164 17.5327 5.99395C18.0872 5.43627 18.7602 5.00369 19.5042 4.72655C20.2483 4.44941 21.0455 4.33443 21.84 4.38966C23.0075 4.38265 24.1744 4.44128 25.335 4.56525V8.51594H22.95C21.06 8.51594 20.7 9.39387 20.7 10.6669V13.4909H25.2L24.615 17.8806H20.7V29.2644H28.35C28.5667 29.2644 28.7812 29.2228 28.9814 29.1419C29.1816 29.061 29.3635 28.9424 29.5167 28.793C29.6699 28.6435 29.7915 28.4661 29.8744 28.2708C29.9573 28.0755 30 27.8662 30 27.6549V1.60954C30 1.39817 29.9573 1.18888 29.8744 0.993597C29.7915 0.798319 29.6699 0.620884 29.5167 0.471424C29.3635 0.321964 29.1816 0.203406 28.9814 0.122519C28.7812 0.0416322 28.5667 0 28.35 0Z" fill="#858585"/>
</svg>
