<svg width="30" height="30" viewBox="0 0 30 30" fill="none" xmlns="http://www.w3.org/2000/svg">
<path d="M15 0C13.0302 0 11.0796 0.38787 9.25975 1.14146C7.43986 1.89506 5.78628 2.99961 4.3934 4.39207C1.58035 7.20427 0 11.0184 0 14.9955C0 21.6235 4.305 27.2468 10.26 29.2412C11.01 29.3611 11.25 28.8963 11.25 28.4914V25.9572C7.095 26.8569 6.21 23.9478 6.21 23.9478C5.52 22.2083 4.545 21.7434 4.545 21.7434C3.18 20.8137 4.65 20.8437 4.65 20.8437C6.15 20.9487 6.945 22.3882 6.945 22.3882C8.25 24.6676 10.455 23.9928 11.31 23.6329C11.445 22.6582 11.835 21.9984 12.255 21.6235C8.925 21.2486 5.43 19.959 5.43 14.2457C5.43 12.5812 6 11.2466 6.975 10.1819C6.825 9.80704 6.3 8.24751 7.125 6.22312C7.125 6.22312 8.385 5.81824 11.25 7.75266C12.435 7.42276 13.725 7.25781 15 7.25781C16.275 7.25781 17.565 7.42276 18.75 7.75266C21.615 5.81824 22.875 6.22312 22.875 6.22312C23.7 8.24751 23.175 9.80704 23.025 10.1819C24 11.2466 24.57 12.5812 24.57 14.2457C24.57 19.974 21.06 21.2336 17.715 21.6085C18.255 22.0733 18.75 22.9881 18.75 24.3826V28.4914C18.75 28.8963 18.99 29.3761 19.755 29.2412C25.71 27.2318 30 21.6235 30 14.9955C30 13.0262 29.612 11.0763 28.8582 9.25696C28.1044 7.43762 26.9995 5.78453 25.6066 4.39207C24.2137 2.99961 22.5601 1.89506 20.7403 1.14146C18.9204 0.38787 16.9698 0 15 0Z" fill="#858585"/>
</svg>
