<svg width="564" height="246" viewBox="0 0 564 246" fill="none" xmlns="http://www.w3.org/2000/svg">
<path d="M45.18 46.82V89.84C45.18 96.5 43.29 101.63 39.51 105.23C35.79 108.83 30.75 110.63 24.39 110.63C17.73 110.63 12.39 108.74 8.37 104.96C4.35 101.18 2.34 95.81 2.34 88.85H17.64C17.64 91.49 18.18 93.5 19.26 94.88C20.34 96.2 21.9 96.86 23.94 96.86C25.8 96.86 27.24 96.26 28.26 95.06C29.28 93.86 29.79 92.12 29.79 89.84V46.82H45.18ZM107.201 59.78V110H91.8113V103.16C90.2513 105.38 88.1213 107.18 85.4213 108.56C82.7813 109.88 79.8413 110.54 76.6013 110.54C72.7613 110.54 69.3713 109.7 66.4313 108.02C63.4913 106.28 61.2113 103.79 59.5913 100.55C57.9713 97.31 57.1613 93.5 57.1613 89.12V59.78H72.4613V87.05C72.4613 90.41 73.3313 93.02 75.0713 94.88C76.8113 96.74 79.1513 97.67 82.0913 97.67C85.0913 97.67 87.4613 96.74 89.2013 94.88C90.9413 93.02 91.8113 90.41 91.8113 87.05V59.78H107.201ZM148.856 59.24C154.736 59.24 159.416 61.16 162.896 65C166.436 68.78 168.206 74 168.206 80.66V110H152.906V82.73C152.906 79.37 152.036 76.76 150.296 74.9C148.556 73.04 146.216 72.11 143.276 72.11C140.336 72.11 137.996 73.04 136.256 74.9C134.516 76.76 133.646 79.37 133.646 82.73V110H118.256V59.78H133.646V66.44C135.206 64.22 137.306 62.48 139.946 61.22C142.586 59.9 145.556 59.24 148.856 59.24ZM277.53 84.8C277.53 79.64 278.49 75.11 280.41 71.21C282.39 67.31 285.06 64.31 288.42 62.21C291.78 60.11 295.53 59.06 299.67 59.06C303.21 59.06 306.3 59.78 308.94 61.22C311.64 62.66 313.71 64.55 315.15 66.89V59.78H330.54V110H315.15V102.89C313.65 105.23 311.55 107.12 308.85 108.56C306.21 110 303.12 110.72 299.58 110.72C295.5 110.72 291.78 109.67 288.42 107.57C285.06 105.41 282.39 102.38 280.41 98.48C278.49 94.52 277.53 89.96 277.53 84.8ZM315.15 84.89C315.15 81.05 314.07 78.02 311.91 75.8C309.81 73.58 307.23 72.47 304.17 72.47C301.11 72.47 298.5 73.58 296.34 75.8C294.24 77.96 293.19 80.96 293.19 84.8C293.19 88.64 294.24 91.7 296.34 93.98C298.5 96.2 301.11 97.31 304.17 97.31C307.23 97.31 309.81 96.2 311.91 93.98C314.07 91.76 315.15 88.73 315.15 84.89ZM357.064 68.15C358.864 65.39 361.114 63.23 363.814 61.67C366.514 60.05 369.514 59.24 372.814 59.24V75.53H368.584C364.744 75.53 361.864 76.37 359.944 78.05C358.024 79.67 357.064 82.55 357.064 86.69V110H341.674V59.78H357.064V68.15Z" fill="white"/>
<path d="M278.137 168.8C278.137 163.64 279.097 159.11 281.017 155.21C282.997 151.31 285.667 148.31 289.027 146.21C292.387 144.11 296.137 143.06 300.277 143.06C303.817 143.06 306.907 143.78 309.547 145.22C312.247 146.66 314.317 148.55 315.757 150.89V143.78H331.147V194H315.757V186.89C314.257 189.23 312.157 191.12 309.457 192.56C306.817 194 303.727 194.72 300.187 194.72C296.107 194.72 292.387 193.67 289.027 191.57C285.667 189.41 282.997 186.38 281.017 182.48C279.097 178.52 278.137 173.96 278.137 168.8ZM315.757 168.89C315.757 165.05 314.677 162.02 312.517 159.8C310.417 157.58 307.837 156.47 304.777 156.47C301.717 156.47 299.107 157.58 296.947 159.8C294.847 161.96 293.797 164.96 293.797 168.8C293.797 172.64 294.847 175.7 296.947 177.98C299.107 180.2 301.717 181.31 304.777 181.31C307.837 181.31 310.417 180.2 312.517 177.98C314.677 175.76 315.757 172.73 315.757 168.89ZM372.881 143.24C378.761 143.24 383.441 145.16 386.921 149C390.461 152.78 392.231 158 392.231 164.66V194H376.931V166.73C376.931 163.37 376.061 160.76 374.321 158.9C372.581 157.04 370.241 156.11 367.301 156.11C364.361 156.11 362.021 157.04 360.281 158.9C358.541 160.76 357.671 163.37 357.671 166.73V194H342.281V143.78H357.671V150.44C359.231 148.22 361.331 146.48 363.971 145.22C366.611 143.9 369.581 143.24 372.881 143.24ZM452.516 143.78V194H437.126V187.16C435.566 189.38 433.436 191.18 430.736 192.56C428.096 193.88 425.156 194.54 421.916 194.54C418.076 194.54 414.686 193.7 411.746 192.02C408.806 190.28 406.526 187.79 404.906 184.55C403.286 181.31 402.476 177.5 402.476 173.12V143.78H417.776V171.05C417.776 174.41 418.646 177.02 420.386 178.88C422.126 180.74 424.466 181.67 427.406 181.67C430.406 181.67 432.776 180.74 434.516 178.88C436.256 177.02 437.126 174.41 437.126 171.05V143.78H452.516ZM510.91 168.08C510.91 169.52 510.82 171.02 510.64 172.58H475.81C476.05 175.7 477.04 178.1 478.78 179.78C480.58 181.4 482.77 182.21 485.35 182.21C489.19 182.21 491.86 180.59 493.36 177.35H509.74C508.9 180.65 507.37 183.62 505.15 186.26C502.99 188.9 500.26 190.97 496.96 192.47C493.66 193.97 489.97 194.72 485.89 194.72C480.97 194.72 476.59 193.67 472.75 191.57C468.91 189.47 465.91 186.47 463.75 182.57C461.59 178.67 460.51 174.11 460.51 168.89C460.51 163.67 461.56 159.11 463.66 155.21C465.82 151.31 468.82 148.31 472.66 146.21C476.5 144.11 480.91 143.06 485.89 143.06C490.75 143.06 495.07 144.08 498.85 146.12C502.63 148.16 505.57 151.07 507.67 154.85C509.83 158.63 510.91 163.04 510.91 168.08ZM495.16 164.03C495.16 161.39 494.26 159.29 492.46 157.73C490.66 156.17 488.41 155.39 485.71 155.39C483.13 155.39 480.94 156.14 479.14 157.64C477.4 159.14 476.32 161.27 475.9 164.03H495.16ZM534.419 127.4V194H519.029V127.4H534.419Z" fill="white"/>
<path d="M198 131.18H217L233.918 174.361L251 131H270L269.837 194.18L253.918 194.361V157.191L240.418 194.361H227.418L213.418 156.361V194.361H198L198 131.18Z" fill="#FF4848"/>
<path d="M198 240L217 193V131H198V240Z" fill="#FF4848"/>
<path d="M270 246L251 196V131H270V246Z" fill="#FF4848"/>
<path d="M198 45.6802H216.5L233.918 88.8606L251.5 45.6802L270 45.5L269.837 108.68L253.918 108.861V71.6907L240.418 108.861H227.418L213.418 70.8606V108.861H198L198 45.6802Z" fill="#FF4848"/>
<path d="M270 0.5L251 47.5L251 109.5L270 109.5L270 0.5Z" fill="#FF4848"/>
<path d="M198 0L217 47.3913V109H198V0Z" fill="#FF4848"/>
</svg>
