<svg width="30" height="30" viewBox="0 0 30 30" fill="none" xmlns="http://www.w3.org/2000/svg">
<path d="M26.6667 0C27.5507 0 28.3986 0.342578 29.0237 0.952372C29.6488 1.56217 30 2.38922 30 3.2516V26.0128C30 26.8752 29.6488 27.7022 29.0237 28.312C28.3986 28.9218 27.5507 29.2644 26.6667 29.2644H3.33333C2.44928 29.2644 1.60143 28.9218 0.976311 28.312C0.351189 27.7022 0 26.8752 0 26.0128V3.2516C0 2.38922 0.351189 1.56217 0.976311 0.952372C1.60143 0.342578 2.44928 0 3.33333 0H26.6667ZM25.8333 25.1999V16.5832C25.8333 15.1775 25.2609 13.8294 24.2419 12.8354C23.223 11.8415 21.841 11.2831 20.4 11.2831C18.9833 11.2831 17.3333 12.1285 16.5333 13.3966V11.592H11.8833V25.1999H16.5333V17.1847C16.5333 15.9328 17.5667 14.9086 18.85 14.9086C19.4688 14.9086 20.0623 15.1484 20.4999 15.5752C20.9375 16.0021 21.1833 16.581 21.1833 17.1847V25.1999H25.8333ZM6.46667 9.03945C7.20927 9.03945 7.92146 8.75169 8.44657 8.23946C8.97167 7.72723 9.26667 7.0325 9.26667 6.30811C9.26667 4.79611 8.01667 3.5605 6.46667 3.5605C5.71964 3.5605 5.00321 3.84998 4.47498 4.36526C3.94675 4.88053 3.65 5.5794 3.65 6.30811C3.65 7.8201 4.91667 9.03945 6.46667 9.03945ZM8.78333 25.1999V11.592H4.16667V25.1999H8.78333Z" fill="#858585"/>
</svg>
