<svg width="61" height="31" viewBox="0 0 61 31" fill="none" xmlns="http://www.w3.org/2000/svg">
<path d="M5.53328 30.24C4.65328 30.24 3.75995 30.16 2.85328 30C1.97328 29.84 1.23995 29.6533 0.653281 29.44V24.72C1.21328 24.7733 1.79995 24.8267 2.41328 24.88C3.02661 24.9067 3.61328 24.92 4.17328 24.92C4.86661 24.92 5.43995 24.8133 5.89328 24.6C6.37328 24.3867 6.71995 24.0667 6.93328 23.64C7.17328 23.1867 7.29328 22.5867 7.29328 21.84V0.4H13.2133V22.72C13.2133 24.4 12.9466 25.8 12.4133 26.92C11.9066 28.04 11.0799 28.88 9.93328 29.44C8.81328 29.9733 7.34661 30.24 5.53328 30.24ZM18.0652 30V8.52H22.9452L23.9852 10.72C24.9185 10.0267 25.9318 9.42667 27.0252 8.92C28.1452 8.41333 29.5185 8.16 31.1452 8.16C32.5052 8.16 33.6252 8.44 34.5052 9C35.4118 9.56 36.0918 10.2933 36.5452 11.2C37.1585 10.72 37.8652 10.2533 38.6652 9.8C39.4918 9.34667 40.3718 8.96 41.3052 8.64C42.2385 8.32 43.1585 8.16 44.0652 8.16C45.7985 8.16 47.1585 8.49333 48.1452 9.16C49.1585 9.8 49.8652 10.72 50.2652 11.92C50.6652 13.0933 50.8652 14.48 50.8652 16.08V30H44.9452V16.6C44.9452 15.9067 44.8118 15.3333 44.5452 14.88C44.3052 14.4267 43.9585 14.08 43.5052 13.84C43.0518 13.6 42.5052 13.48 41.8652 13.48C41.0652 13.48 40.2518 13.6533 39.4252 14C38.6252 14.32 37.9052 14.7067 37.2652 15.16C37.3185 15.4267 37.3585 15.6933 37.3852 15.96C37.4118 16.2 37.4252 16.4533 37.4252 16.72V30H31.5052V16.6C31.5052 15.9067 31.3718 15.3333 31.1052 14.88C30.8652 14.4267 30.5185 14.08 30.0652 13.84C29.6118 13.6 29.0652 13.48 28.4252 13.48C27.8652 13.48 27.3185 13.5467 26.7852 13.68C26.2785 13.8133 25.7852 14 25.3052 14.24C24.8518 14.48 24.4118 14.76 23.9852 15.08V30H18.0652ZM55.9717 30.04C55.4384 30.04 55.1717 29.7733 55.1717 29.24V25.16C55.1717 24.6 55.4384 24.32 55.9717 24.32H59.4117C59.9984 24.32 60.2917 24.6 60.2917 25.16V29.24C60.2917 29.56 60.1984 29.7733 60.0117 29.88C59.8517 29.9867 59.6517 30.04 59.4117 30.04H55.9717Z" fill="url(#paint0_linear_124_48)"/>
<defs>
<linearGradient id="paint0_linear_124_48" x1="31" y1="-10" x2="31" y2="51.5" gradientUnits="userSpaceOnUse">
<stop stop-color="#FF0000"/>
<stop offset="1" stop-color="white" stop-opacity="0"/>
</linearGradient>
</defs>
</svg>
